<svg width="172" height="45" viewBox="0 0 172 45" fill="none" xmlns="http://www.w3.org/2000/svg">
<g clip-path="url(#clip0_1_2)">
<path d="M13.5328 29.984C13.5114 30.6667 13.2768 31.1787 12.8288 31.52C12.4021 31.8613 11.9008 32.0213 11.3248 32C10.7701 31.9787 10.2901 31.7867 9.88475 31.424C9.47942 31.0613 9.28742 30.5387 9.30875 29.856C9.30875 29.3013 9.33008 28.576 9.37275 27.68C9.43675 26.7627 9.47942 25.8773 9.50075 25.024C9.50075 24.384 9.46875 23.648 9.40475 22.816C9.34075 21.9627 9.22342 21.28 9.05275 20.768C8.92475 20.3627 8.66875 20.032 8.28475 19.776C7.90075 19.4987 7.42075 19.3387 6.84475 19.296C6.24742 19.232 5.69275 19.3067 5.18075 19.52C4.69008 19.712 4.32742 19.9893 4.09275 20.352C4.00742 20.6293 3.95408 20.8213 3.93275 20.928C3.93275 21.0133 3.93275 21.152 3.93275 21.344C3.93275 22.0907 3.94342 23.424 3.96475 25.344C3.98608 27.2853 3.99675 28.7573 3.99675 29.76C3.99675 30.3573 3.84742 30.8373 3.54875 31.2C3.25008 31.5413 2.87675 31.776 2.42875 31.904C1.98075 32.0107 1.53275 32.0107 1.08475 31.904C0.63675 31.776 0.263417 31.5413 -0.0352499 31.2C-0.333917 30.8373 -0.48325 30.3573 -0.48325 29.76C-0.48325 29.3973 -0.48325 28.8533 -0.48325 28.128C-0.48325 27.4027 -0.493917 26.5813 -0.51525 25.664C-0.51525 24.7467 -0.536583 23.808 -0.57925 22.848C-0.600583 21.8667 -0.632583 20.9493 -0.67525 20.096C-0.696583 19.2213 -0.73925 18.4853 -0.80325 17.888C-0.909917 17.12 -0.760583 16.512 -0.35525 16.064C0.0500835 15.5947 0.57275 15.36 1.21275 15.36C2.36475 15.424 3.03675 15.9787 3.22875 17.024C4.21008 15.7867 5.56475 15.136 7.29275 15.072C8.80742 15.0933 10.0448 15.5093 11.0048 16.32C11.9648 17.1093 12.6581 18.1653 13.0848 19.488C13.2341 19.9787 13.3514 20.5653 13.4368 21.248C13.5434 21.9093 13.6181 22.5813 13.6608 23.264C13.7034 23.9467 13.7248 24.5333 13.7248 25.024C13.7034 26.0267 13.6608 26.9973 13.5968 27.936C13.5541 28.8533 13.5328 29.536 13.5328 29.984ZM19.4085 37.792C18.8965 38.2827 18.3632 38.496 17.8085 38.432C17.2752 38.368 16.8165 38.1333 16.4325 37.728C16.0485 37.3227 15.8352 36.8427 15.7925 36.288C15.7498 35.7333 15.9738 35.2107 16.4645 34.72C16.9338 34.272 17.4245 33.824 17.9365 33.376C18.4698 32.9493 18.8858 32.544 19.1845 32.16C19.5898 31.6693 19.9738 31.136 20.3365 30.56C20.2725 30.4747 20.2298 30.3787 20.2085 30.272L15.6965 18.048C15.5045 17.4933 15.4832 17.0027 15.6325 16.576C15.7818 16.128 16.0378 15.776 16.4005 15.52C16.7845 15.2427 17.2005 15.0827 17.6485 15.04C18.1178 14.976 18.5445 15.0613 18.9285 15.296C19.3338 15.5093 19.6432 15.8933 19.8565 16.448L22.9605 25.12C23.4512 23.8187 24.2832 20.9813 25.4565 16.608C25.6272 15.9467 25.9685 15.5093 26.4805 15.296C26.9925 15.0827 27.5152 15.0507 28.0485 15.2C28.5818 15.3493 28.9978 15.6587 29.2965 16.128C29.6165 16.576 29.6805 17.1413 29.4885 17.824C29.0832 19.0187 28.7312 20.3307 28.4325 21.76C28.1552 23.168 27.7498 24.5227 27.2165 25.824L26.5125 27.68C26.2138 28.448 25.9365 29.088 25.6805 29.6L24.7845 31.328C24.4432 31.9893 24.0805 32.5973 23.6965 33.152C23.3125 33.728 22.9178 34.272 22.5125 34.784C22.2352 35.1467 21.8938 35.5093 21.4885 35.872L20.2085 37.024C19.7818 37.408 19.5152 37.664 19.4085 37.792ZM50.4335 31.328C49.9855 30.9013 49.7615 30.3893 49.7615 29.792C49.7402 27.68 49.7295 26.016 49.7295 24.8C49.6868 24.544 49.6868 24.2987 49.7295 24.064C49.7082 21.696 49.6975 19.552 49.6975 17.632C49.6975 16.8 49.9108 16.1707 50.3375 15.744C50.7855 15.296 51.3188 15.072 51.9375 15.072C52.3855 15.072 52.7908 15.2 53.1535 15.456C53.5375 15.6907 53.8148 16.1173 53.9855 16.736C54.8388 16.2667 56.1188 15.7333 57.8255 15.136C58.4868 14.9013 59.0522 14.9333 59.5215 15.232C59.9908 15.5093 60.3108 15.9147 60.4815 16.448C60.6735 16.96 60.6735 17.472 60.4815 17.984C60.3108 18.496 59.8948 18.8693 59.2335 19.104C57.2708 19.7867 55.5962 20.4587 54.2095 21.12C54.1242 21.8027 54.1135 22.7733 54.1775 24.032C54.1988 25.376 54.2202 27.2747 54.2415 29.728C54.2415 30.3893 54.0175 30.9333 53.5695 31.36C53.1428 31.7653 52.6308 31.9787 52.0335 32C51.4362 32.0213 50.9028 31.7973 50.4335 31.328ZM71.9055 31.872C70.9242 32.2133 69.9642 32.3413 69.0255 32.256C68.0868 32.1707 67.1802 31.9573 66.3055 31.616C65.3882 31.2533 64.5562 30.72 63.8095 30.016C63.0842 29.312 62.4868 28.512 62.0175 27.616C61.5482 26.6987 61.2708 25.7387 61.1855 24.736C61.1002 23.4773 61.3028 22.1973 61.7935 20.896C62.3055 19.5733 63.0202 18.4427 63.9375 17.504C64.5988 16.8213 65.3455 16.2667 66.1775 15.84C66.9882 15.4347 67.9162 15.1787 68.9615 15.072C70.0068 14.9653 71.0628 15.1467 72.1295 15.616C72.7055 15.8507 73.3135 16.2347 73.9535 16.768C73.9962 16.8107 74.1348 16.9387 74.3695 17.152L74.9455 17.632C75.4148 17.9947 75.6922 18.4 75.7775 18.848C75.8628 19.296 75.8095 19.7227 75.6175 20.128C75.4468 20.5333 75.1802 20.8747 74.8175 21.152C74.4548 21.4293 74.0388 21.5787 73.5695 21.6C73.1215 21.6 72.6628 21.4187 72.1935 21.056C72.1508 21.0347 71.7455 20.6933 70.9775 20.032C70.7215 19.8187 70.5295 19.68 70.4015 19.616C69.2495 19.1467 68.1828 19.4347 67.2015 20.48C66.6895 21.0133 66.2842 21.6427 65.9855 22.368C65.7082 23.0933 65.6015 23.776 65.6655 24.416C65.7082 25.0133 65.9428 25.632 66.3695 26.272C66.7962 26.8907 67.3615 27.3387 68.0655 27.616C68.8122 27.8933 69.4415 28 69.9535 27.936C70.4868 27.8507 70.9135 27.648 71.2335 27.328C71.3402 27.2213 71.4682 26.9973 71.6175 26.656C72.0655 25.6747 72.3002 25.1627 72.3215 25.12C72.5988 24.608 72.9508 24.2667 73.3775 24.096C73.8042 23.904 74.2308 23.8613 74.6575 23.968C75.1055 24.0747 75.5002 24.2773 75.8415 24.576C76.1828 24.8747 76.4068 25.248 76.5135 25.696C76.6202 26.1227 76.5455 26.592 76.2895 27.104C76.2255 27.2533 76.1295 27.4667 76.0015 27.744C75.8948 28.0213 75.7988 28.2347 75.7135 28.384C75.3722 29.1947 74.9668 29.8347 74.4975 30.304C73.7722 31.0507 72.9082 31.5733 71.9055 31.872ZM81.6935 32.128C81.0962 32.128 80.5735 31.936 80.1255 31.552C79.6775 31.168 79.4535 30.624 79.4535 29.92C79.4535 27.936 79.4108 24.896 79.3255 20.8C79.2402 16.704 79.1975 13.408 79.1975 10.912C79.1975 10.208 79.4215 9.664 79.8695 9.28C80.3175 8.896 80.8402 8.704 81.4375 8.704C82.0348 8.704 82.5575 8.896 83.0055 9.28C83.4535 9.664 83.6775 10.208 83.6775 10.912C83.6775 13.4293 83.6882 15.232 83.7095 16.32C84.1362 16 84.5842 15.7227 85.0535 15.488C85.7362 15.1467 86.5148 14.976 87.3895 14.976C88.6268 14.976 89.7468 15.296 90.7495 15.936C91.7735 16.576 92.4668 17.4187 92.8295 18.464C93.0855 19.232 93.2348 20.224 93.2775 21.44C93.2988 21.8027 93.3095 22.4747 93.3095 23.456V24.704L93.1175 30.048C93.0962 30.688 92.8828 31.1787 92.4775 31.52C92.0722 31.8613 91.5922 32.032 91.0375 32.032C90.4402 32.032 89.9282 31.84 89.5015 31.456C89.0748 31.072 88.8722 30.5387 88.8935 29.856L89.0855 24.64L89.1175 22.912L89.0855 21.6C89.0428 20.8533 88.9895 20.3947 88.9255 20.224C88.7122 19.584 88.1575 19.264 87.2615 19.264C86.6002 19.264 85.9602 19.4027 85.3415 19.68C84.6802 20 84.1682 20.3627 83.8055 20.768C83.8908 24.8853 83.9335 27.936 83.9335 29.92C83.9335 30.624 83.7095 31.168 83.2615 31.552C82.8135 31.936 82.2908 32.128 81.6935 32.128Z" fill="#1E88E5"/>
<path d="M102.746 32.224C101.808 32.224 100.89 32.1067 99.9943 31.872C99.1196 31.6373 98.3836 31.3067 97.7863 30.88C97.3383 30.5173 96.9329 30.0373 96.5703 29.44L96.3463 29.056L96.0583 28.544C95.8663 28.1813 95.7703 27.8507 95.7703 27.552C95.7703 26.9973 95.9943 26.5173 96.4423 26.112C96.9116 25.6853 97.4343 25.472 98.0103 25.472C98.7356 25.472 99.3116 25.792 99.7383 26.432L100.122 27.072L100.314 27.456C100.442 27.712 100.688 27.9147 101.05 28.064C101.605 28.2347 102.085 28.32 102.49 28.32C102.789 28.32 103.162 28.288 103.61 28.224C104.741 27.9893 105.328 27.6373 105.37 27.168V27.04C105.37 26.784 105.253 26.5387 105.018 26.304C104.741 26.048 104.101 25.7173 103.098 25.312L101.69 24.768C100.901 24.4907 100.336 24.2667 99.9943 24.096C98.4369 23.4133 97.4236 22.5813 96.9543 21.6C96.6343 20.96 96.4743 20.3307 96.4743 19.712C96.4743 19.2 96.5809 18.72 96.7943 18.272C97.2209 17.2267 98.2129 16.384 99.7703 15.744C100.794 15.3387 101.85 15.136 102.938 15.136C103.152 15.136 103.472 15.1573 103.898 15.2C105.776 15.392 107.418 16.128 108.826 17.408C109.274 17.792 109.498 18.2827 109.498 18.88C109.498 19.4347 109.296 19.936 108.89 20.384C108.506 20.832 108.026 21.056 107.45 21.056C107.002 21.056 106.554 20.9067 106.106 20.608L105.338 20.032C104.976 19.776 104.709 19.616 104.538 19.552C103.898 19.3387 103.29 19.232 102.714 19.232C102.181 19.232 101.722 19.2853 101.338 19.392C101.061 19.4987 100.922 19.648 100.922 19.84C100.922 19.968 100.997 20.0747 101.146 20.16C101.274 20.2453 101.498 20.3627 101.818 20.512C102.202 20.6827 102.757 20.8853 103.482 21.12C103.973 21.2693 104.474 21.4613 104.986 21.696C105.328 21.8453 105.712 22.0053 106.138 22.176C106.544 22.368 106.97 22.624 107.418 22.944C108.122 23.4133 108.677 24 109.082 24.704C109.488 25.3867 109.69 26.1547 109.69 27.008C109.69 27.2853 109.68 27.4987 109.658 27.648C109.466 28.9707 108.858 29.9947 107.834 30.72C106.832 31.4453 105.626 31.9147 104.218 32.128C103.749 32.192 103.258 32.224 102.746 32.224ZM118.432 32.064C118.006 32.064 117.59 31.9253 117.184 31.648C116.95 31.5627 116.726 31.456 116.512 31.328L115.68 30.848C114.827 30.3573 114.187 29.8987 113.76 29.472C113.398 29.0027 113.174 28.544 113.088 28.096C113.003 27.6267 112.95 26.944 112.928 26.048V25.408C112.907 24.7893 112.896 23.3493 112.896 21.088C112.896 20.1707 112.907 19.4773 112.928 19.008H112.32C111.787 19.008 111.318 18.8267 110.912 18.464C110.528 18.08 110.336 17.6 110.336 17.024C110.336 16.4267 110.539 15.936 110.944 15.552C111.35 15.1467 111.819 14.944 112.352 14.944H112.928L112.96 13.568V12.576C112.982 11.8933 113.206 11.3707 113.632 11.008C114.08 10.624 114.592 10.432 115.168 10.432C115.766 10.432 116.288 10.6347 116.736 11.04C117.206 11.4453 117.44 12 117.44 12.704L117.376 14.88H118.56C119.328 14.88 119.904 15.0827 120.288 15.488C120.672 15.8933 120.864 16.4053 120.864 17.024C120.864 17.6213 120.662 18.1333 120.256 18.56C119.851 18.9653 119.254 19.168 118.464 19.168H117.28C117.28 20.0427 117.27 20.6933 117.248 21.12C117.227 21.568 117.216 22.208 117.216 23.04C117.216 24.4053 117.259 25.5893 117.344 26.592C117.43 26.6773 117.483 26.72 117.504 26.72L117.824 26.944L118.08 27.072L118.368 27.232L118.624 27.36C119.008 27.5307 119.339 27.7227 119.616 27.936C120.278 28.384 120.608 28.9813 120.608 29.728C120.608 30.3253 120.395 30.8693 119.968 31.36C119.542 31.8293 119.03 32.064 118.432 32.064ZM128.427 32.224C126.571 31.8613 125.12 31.008 124.075 29.664C123.008 28.32 122.368 26.784 122.155 25.056C122.027 23.9893 122.059 22.912 122.251 21.824C122.464 20.736 122.827 19.712 123.339 18.752C123.872 17.792 124.555 16.96 125.387 16.256C125.878 15.8293 126.507 15.4987 127.275 15.264C127.296 15.264 127.52 15.2 127.947 15.072C128.118 15.0293 128.246 14.9867 128.331 14.944C128.928 14.7093 129.526 14.7307 130.123 15.008C132.128 15.328 133.472 15.6587 134.155 16C135.115 16.4693 135.894 17.184 136.491 18.144C137.11 19.0827 137.526 20.1173 137.739 21.248C137.974 22.3787 137.995 23.4453 137.803 24.448C137.696 25.4933 137.462 26.496 137.099 27.456C136.736 28.4373 136.182 29.3653 135.435 30.24C134.688 31.1147 133.814 31.7333 132.811 32.096C131.595 32.5227 130.134 32.5653 128.427 32.224ZM129.259 27.872C130.176 28.0427 130.87 28.0427 131.339 27.872C131.787 27.7013 132.16 27.36 132.459 26.848C132.779 26.336 133.014 25.7387 133.163 25.056C133.334 24.352 133.408 23.6587 133.387 22.976C133.387 22.272 133.291 21.6533 133.099 21.12C132.907 20.5867 132.619 20.224 132.235 20.032C131.808 19.84 131.339 19.7227 130.827 19.68C130.336 19.616 129.782 19.5093 129.163 19.36C128.8 19.4667 128.608 19.52 128.587 19.52L128.267 19.648C127.67 20.16 127.211 20.864 126.891 21.76C126.571 22.656 126.475 23.584 126.603 24.544C126.816 26.4427 127.702 27.552 129.259 27.872ZM141.621 31.328C141.173 30.9013 140.949 30.3893 140.949 29.792C140.928 27.68 140.917 26.016 140.917 24.8C140.874 24.544 140.874 24.2987 140.917 24.064C140.896 21.696 140.885 19.552 140.885 17.632C140.885 16.8 141.098 16.1707 141.525 15.744C141.973 15.296 142.506 15.072 143.125 15.072C143.573 15.072 143.978 15.2 144.341 15.456C144.725 15.6907 145.002 16.1173 145.173 16.736C146.026 16.2667 147.306 15.7333 149.013 15.136C149.674 14.9013 150.24 14.9333 150.709 15.232C151.178 15.5093 151.498 15.9147 151.669 16.448C151.861 16.96 151.861 17.472 151.669 17.984C151.498 18.496 151.082 18.8693 150.421 19.104C148.458 19.7867 146.784 20.4587 145.397 21.12C145.312 21.8027 145.301 22.7733 145.365 24.032C145.386 25.376 145.408 27.2747 145.429 29.728C145.429 30.3893 145.205 30.9333 144.757 31.36C144.33 31.7653 143.818 31.9787 143.221 32C142.624 32.0213 142.09 31.7973 141.621 31.328ZM160.821 32.288C159.114 32.288 157.621 31.9253 156.341 31.2C155.061 30.4747 154.08 29.504 153.397 28.288C152.736 27.072 152.405 25.728 152.405 24.256C152.405 22.4 152.746 20.7893 153.429 19.424C154.112 18.08 155.093 17.0133 156.373 16.224C157.653 15.4347 159.104 15.04 160.725 15.04C162.389 15.04 163.818 15.3813 165.013 16.064C166.186 16.7467 167.072 17.6747 167.669 18.848C168.266 20 168.565 21.2907 168.565 22.72C168.565 23.4453 168.33 24.0107 167.861 24.416C167.392 24.8213 166.762 25.056 165.973 25.12C164.373 25.2693 162.954 25.344 161.717 25.344C160.544 25.344 159.285 25.312 157.941 25.248L156.821 25.216C156.949 26.2613 157.354 27.0827 158.037 27.68C158.741 28.256 159.797 28.5227 161.205 28.48C161.845 28.4587 162.357 28.384 162.741 28.256C163.125 28.1067 163.466 27.8933 163.765 27.616C164.085 27.296 164.384 27.0293 164.661 26.816C164.938 26.5813 165.322 26.464 165.813 26.464C166.368 26.464 166.826 26.656 167.189 27.04C167.573 27.4027 167.765 27.8293 167.765 28.32C167.765 29.0027 167.424 29.6533 166.741 30.272C166.058 30.8907 165.173 31.3813 164.085 31.744C163.018 32.1067 161.93 32.288 160.821 32.288ZM156.885 21.952C158.144 22.1227 159.541 22.1867 161.077 22.144C162.549 22.1227 163.626 22.0267 164.309 21.856C164.266 20.9387 163.989 20.2027 163.477 19.648C162.986 19.0933 162.09 18.8267 160.789 18.848C159.701 18.8693 158.816 19.1147 158.133 19.584C157.45 20.0533 157.034 20.8427 156.885 21.952Z" fill="white"/>
<path d="M40.2325 29.5011C40.442 28.9716 40.5645 28.3679 40.5645 27.7215C40.5645 25.7411 39.459 24.1306 38.1 24.1306C36.7295 24.1306 35.6245 25.7411 35.6245 27.7215C35.6245 28.3569 35.735 28.9606 35.945 29.4795C31.4245 29.9352 28.2415 31.7465 26.9485 32.5615C29.126 29.5533 31.403 26.0267 33.5795 21.9696C34.121 20.9628 34.63 19.9676 35.1045 18.9935C35.292 19.1099 35.48 19.2374 35.69 19.3648C36.6625 19.947 37.5695 20.2652 38.232 20.4348C37.7455 20.085 37.2155 19.6619 36.674 19.1425C36.2655 18.751 35.9005 18.3581 35.5905 17.9767C36.508 16.0495 37.304 14.1956 38 12.4375C39.16 15.3815 40.6085 18.591 42.4205 21.9696C43.592 24.1407 44.786 26.1642 45.979 28.0281C45.6365 27.8485 45.2605 27.6784 44.8625 27.5303C44.177 27.2763 43.5365 27.1172 42.983 27.0224C43.7345 27.3822 44.608 27.8595 45.525 28.4949C46.122 28.9189 46.652 29.3425 47.1055 29.7555C47.116 29.7656 47.116 29.7656 47.128 29.7771C47.758 30.7623 48.4105 31.6732 49.051 32.5625C47.7805 31.757 44.653 29.9774 40.2325 29.5011Z" fill="#1E88E5"/>
</g>
<defs>
<clipPath id="clip0_1_2">
<rect width="172" height="45" fill="white"/>
</clipPath>
</defs>
</svg>
