<svg width="172" height="45" viewBox="0 0 172 45" fill="none" xmlns="http://www.w3.org/2000/svg">
<g clip-path="url(#clip0_2_2)">
<path d="M20.5328 29.984C20.5114 30.6667 20.2768 31.1787 19.8288 31.52C19.4021 31.8613 18.9008 32.0213 18.3248 32C17.7701 31.9787 17.2901 31.7867 16.8848 31.424C16.4794 31.0613 16.2874 30.5387 16.3088 29.856C16.3088 29.3013 16.3301 28.576 16.3728 27.68C16.4368 26.7627 16.4794 25.8773 16.5008 25.024C16.5008 24.384 16.4688 23.648 16.4048 22.816C16.3408 21.9627 16.2234 21.28 16.0528 20.768C15.9248 20.3627 15.6688 20.032 15.2848 19.776C14.9008 19.4987 14.4208 19.3387 13.8448 19.296C13.2474 19.232 12.6928 19.3067 12.1808 19.52C11.6901 19.712 11.3274 19.9893 11.0928 20.352C11.0074 20.6293 10.9541 20.8213 10.9328 20.928C10.9328 21.0133 10.9328 21.152 10.9328 21.344C10.9328 22.0907 10.9434 23.424 10.9648 25.344C10.9861 27.2853 10.9968 28.7573 10.9968 29.76C10.9968 30.3573 10.8474 30.8373 10.5488 31.2C10.2501 31.5413 9.87675 31.776 9.42875 31.904C8.98075 32.0107 8.53275 32.0107 8.08475 31.904C7.63675 31.776 7.26342 31.5413 6.96475 31.2C6.66608 30.8373 6.51675 30.3573 6.51675 29.76C6.51675 29.3973 6.51675 28.8533 6.51675 28.128C6.51675 27.4027 6.50608 26.5813 6.48475 25.664C6.48475 24.7467 6.46342 23.808 6.42075 22.848C6.39942 21.8667 6.36742 20.9493 6.32475 20.096C6.30342 19.2213 6.26075 18.4853 6.19675 17.888C6.09008 17.12 6.23942 16.512 6.64475 16.064C7.05008 15.5947 7.57275 15.36 8.21275 15.36C9.36475 15.424 10.0368 15.9787 10.2288 17.024C11.2101 15.7867 12.5648 15.136 14.2928 15.072C15.8074 15.0933 17.0448 15.5093 18.0048 16.32C18.9648 17.1093 19.6581 18.1653 20.0848 19.488C20.2341 19.9787 20.3514 20.5653 20.4368 21.248C20.5434 21.9093 20.6181 22.5813 20.6608 23.264C20.7034 23.9467 20.7248 24.5333 20.7248 25.024C20.7034 26.0267 20.6608 26.9973 20.5968 27.936C20.5541 28.8533 20.5328 29.536 20.5328 29.984ZM26.4085 37.792C25.8965 38.2827 25.3632 38.496 24.8085 38.432C24.2752 38.368 23.8165 38.1333 23.4325 37.728C23.0485 37.3227 22.8352 36.8427 22.7925 36.288C22.7498 35.7333 22.9738 35.2107 23.4645 34.72C23.9338 34.272 24.4245 33.824 24.9365 33.376C25.4698 32.9493 25.8858 32.544 26.1845 32.16C26.5898 31.6693 26.9738 31.136 27.3365 30.56C27.2725 30.4747 27.2298 30.3787 27.2085 30.272L22.6965 18.048C22.5045 17.4933 22.4832 17.0027 22.6325 16.576C22.7818 16.128 23.0378 15.776 23.4005 15.52C23.7845 15.2427 24.2005 15.0827 24.6485 15.04C25.1178 14.976 25.5445 15.0613 25.9285 15.296C26.3338 15.5093 26.6432 15.8933 26.8565 16.448L29.9605 25.12C30.4512 23.8187 31.2832 20.9813 32.4565 16.608C32.6272 15.9467 32.9685 15.5093 33.4805 15.296C33.9925 15.0827 34.5152 15.0507 35.0485 15.2C35.5818 15.3493 35.9978 15.6587 36.2965 16.128C36.6165 16.576 36.6805 17.1413 36.4885 17.824C36.0832 19.0187 35.7312 20.3307 35.4325 21.76C35.1552 23.168 34.7498 24.5227 34.2165 25.824L33.5125 27.68C33.2138 28.448 32.9365 29.088 32.6805 29.6L31.7845 31.328C31.4432 31.9893 31.0805 32.5973 30.6965 33.152C30.3125 33.728 29.9178 34.272 29.5125 34.784C29.2352 35.1467 28.8938 35.5093 28.4885 35.872L27.2085 37.024C26.7818 37.408 26.5152 37.664 26.4085 37.792ZM57.4335 31.328C56.9855 30.9013 56.7615 30.3893 56.7615 29.792C56.7402 27.68 56.7295 26.016 56.7295 24.8C56.6868 24.544 56.6868 24.2987 56.7295 24.064C56.7082 21.696 56.6975 19.552 56.6975 17.632C56.6975 16.8 56.9108 16.1707 57.3375 15.744C57.7855 15.296 58.3188 15.072 58.9375 15.072C59.3855 15.072 59.7908 15.2 60.1535 15.456C60.5375 15.6907 60.8148 16.1173 60.9855 16.736C61.8388 16.2667 63.1188 15.7333 64.8255 15.136C65.4868 14.9013 66.0522 14.9333 66.5215 15.232C66.9908 15.5093 67.3108 15.9147 67.4815 16.448C67.6735 16.96 67.6735 17.472 67.4815 17.984C67.3108 18.496 66.8948 18.8693 66.2335 19.104C64.2708 19.7867 62.5962 20.4587 61.2095 21.12C61.1242 21.8027 61.1135 22.7733 61.1775 24.032C61.1988 25.376 61.2202 27.2747 61.2415 29.728C61.2415 30.3893 61.0175 30.9333 60.5695 31.36C60.1428 31.7653 59.6308 31.9787 59.0335 32C58.4362 32.0213 57.9028 31.7973 57.4335 31.328ZM78.9055 31.872C77.9242 32.2133 76.9642 32.3413 76.0255 32.256C75.0868 32.1707 74.1802 31.9573 73.3055 31.616C72.3882 31.2533 71.5562 30.72 70.8095 30.016C70.0842 29.312 69.4868 28.512 69.0175 27.616C68.5482 26.6987 68.2708 25.7387 68.1855 24.736C68.1002 23.4773 68.3028 22.1973 68.7935 20.896C69.3055 19.5733 70.0202 18.4427 70.9375 17.504C71.5988 16.8213 72.3455 16.2667 73.1775 15.84C73.9882 15.4347 74.9162 15.1787 75.9615 15.072C77.0068 14.9653 78.0628 15.1467 79.1295 15.616C79.7055 15.8507 80.3135 16.2347 80.9535 16.768C80.9962 16.8107 81.1348 16.9387 81.3695 17.152L81.9455 17.632C82.4148 17.9947 82.6922 18.4 82.7775 18.848C82.8628 19.296 82.8095 19.7227 82.6175 20.128C82.4468 20.5333 82.1802 20.8747 81.8175 21.152C81.4548 21.4293 81.0388 21.5787 80.5695 21.6C80.1215 21.6 79.6628 21.4187 79.1935 21.056C79.1508 21.0347 78.7455 20.6933 77.9775 20.032C77.7215 19.8187 77.5295 19.68 77.4015 19.616C76.2495 19.1467 75.1828 19.4347 74.2015 20.48C73.6895 21.0133 73.2842 21.6427 72.9855 22.368C72.7082 23.0933 72.6015 23.776 72.6655 24.416C72.7082 25.0133 72.9428 25.632 73.3695 26.272C73.7962 26.8907 74.3615 27.3387 75.0655 27.616C75.8122 27.8933 76.4415 28 76.9535 27.936C77.4868 27.8507 77.9135 27.648 78.2335 27.328C78.3402 27.2213 78.4682 26.9973 78.6175 26.656C79.0655 25.6747 79.3002 25.1627 79.3215 25.12C79.5988 24.608 79.9508 24.2667 80.3775 24.096C80.8042 23.904 81.2308 23.8613 81.6575 23.968C82.1055 24.0747 82.5002 24.2773 82.8415 24.576C83.1828 24.8747 83.4068 25.248 83.5135 25.696C83.6202 26.1227 83.5455 26.592 83.2895 27.104C83.2255 27.2533 83.1295 27.4667 83.0015 27.744C82.8948 28.0213 82.7988 28.2347 82.7135 28.384C82.3722 29.1947 81.9668 29.8347 81.4975 30.304C80.7722 31.0507 79.9082 31.5733 78.9055 31.872ZM88.6935 32.128C88.0962 32.128 87.5735 31.936 87.1255 31.552C86.6775 31.168 86.4535 30.624 86.4535 29.92C86.4535 27.936 86.4108 24.896 86.3255 20.8C86.2402 16.704 86.1975 13.408 86.1975 10.912C86.1975 10.208 86.4215 9.664 86.8695 9.28C87.3175 8.896 87.8402 8.704 88.4375 8.704C89.0348 8.704 89.5575 8.896 90.0055 9.28C90.4535 9.664 90.6775 10.208 90.6775 10.912C90.6775 13.4293 90.6882 15.232 90.7095 16.32C91.1362 16 91.5842 15.7227 92.0535 15.488C92.7362 15.1467 93.5148 14.976 94.3895 14.976C95.6268 14.976 96.7468 15.296 97.7495 15.936C98.7735 16.576 99.4668 17.4187 99.8295 18.464C100.086 19.232 100.235 20.224 100.278 21.44C100.299 21.8027 100.31 22.4747 100.31 23.456V24.704L100.118 30.048C100.096 30.688 99.8828 31.1787 99.4775 31.52C99.0722 31.8613 98.5922 32.032 98.0375 32.032C97.4402 32.032 96.9282 31.84 96.5015 31.456C96.0748 31.072 95.8722 30.5387 95.8935 29.856L96.0855 24.64L96.1175 22.912L96.0855 21.6C96.0428 20.8533 95.9895 20.3947 95.9255 20.224C95.7122 19.584 95.1575 19.264 94.2615 19.264C93.6002 19.264 92.9602 19.4027 92.3415 19.68C91.6802 20 91.1682 20.3627 90.8055 20.768C90.8908 24.8853 90.9335 27.936 90.9335 29.92C90.9335 30.624 90.7095 31.168 90.2615 31.552C89.8135 31.936 89.2908 32.128 88.6935 32.128Z" fill="#1E88E5"/>
<path d="M108.146 30.176C108.125 30.9013 107.88 31.4453 107.41 31.808C106.962 32.1707 106.44 32.3413 105.842 32.32C105.266 32.32 104.754 32.1387 104.306 31.776C103.88 31.392 103.666 30.8373 103.666 30.112C103.709 30.112 103.72 27.04 103.698 20.896L103.666 11.104C103.666 10.5067 103.816 10.0373 104.114 9.696C104.413 9.33333 104.786 9.09867 105.234 8.992C105.682 8.864 106.13 8.864 106.578 8.992C107.026 9.09867 107.4 9.33333 107.698 9.696C107.997 10.0373 108.146 10.5067 108.146 11.104C108.146 12.8107 108.157 14.9333 108.178 17.472C108.178 18.432 108.178 19.4987 108.178 20.672C108.178 21.824 108.178 22.9973 108.178 24.192C108.178 25.3653 108.168 26.4747 108.146 27.52C108.146 28.5653 108.146 29.4507 108.146 30.176ZM111.538 29.824C111.474 25.3013 111.506 21.0667 111.634 17.12C111.655 16.5227 111.815 16.0533 112.114 15.712C112.434 15.3707 112.818 15.1573 113.266 15.072C113.714 14.9653 114.162 14.9867 114.61 15.136C115.058 15.264 115.42 15.5093 115.698 15.872C115.996 16.2347 116.135 16.7147 116.114 17.312C115.986 21.3013 115.954 25.4507 116.018 29.76C116.018 30.4853 115.794 31.04 115.346 31.424C114.919 31.7867 114.407 31.9787 113.81 32C113.234 32 112.711 31.8187 112.242 31.456C111.794 31.0933 111.559 30.5493 111.538 29.824ZM115.346 9.504C115.772 9.90933 116.007 10.3573 116.05 10.848C116.092 11.3173 115.996 11.7653 115.762 12.192C115.527 12.5973 115.196 12.928 114.77 13.184C114.364 13.4187 113.916 13.5147 113.426 13.472C112.956 13.4293 112.508 13.1947 112.082 12.768C111.655 12.3413 111.42 11.8827 111.378 11.392C111.335 10.9013 111.431 10.4533 111.666 10.048C111.922 9.64267 112.252 9.32267 112.658 9.088C113.063 8.832 113.5 8.72533 113.97 8.768C114.46 8.81067 114.919 9.056 115.346 9.504ZM133.845 29.984C133.824 30.6667 133.589 31.1787 133.141 31.52C132.715 31.8613 132.213 32.0213 131.637 32C131.083 31.9787 130.603 31.7867 130.197 31.424C129.792 31.0613 129.6 30.5387 129.621 29.856C129.621 29.3013 129.643 28.576 129.685 27.68C129.749 26.7627 129.792 25.8773 129.813 25.024C129.813 24.384 129.781 23.648 129.717 22.816C129.653 21.9627 129.536 21.28 129.365 20.768C129.237 20.3627 128.981 20.032 128.597 19.776C128.213 19.4987 127.733 19.3387 127.157 19.296C126.56 19.232 126.005 19.3067 125.493 19.52C125.003 19.712 124.64 19.9893 124.405 20.352C124.32 20.6293 124.267 20.8213 124.245 20.928C124.245 21.0133 124.245 21.152 124.245 21.344C124.245 22.0907 124.256 23.424 124.277 25.344C124.299 27.2853 124.309 28.7573 124.309 29.76C124.309 30.3573 124.16 30.8373 123.861 31.2C123.563 31.5413 123.189 31.776 122.741 31.904C122.293 32.0107 121.845 32.0107 121.397 31.904C120.949 31.776 120.576 31.5413 120.277 31.2C119.979 30.8373 119.829 30.3573 119.829 29.76C119.829 29.3973 119.829 28.8533 119.829 28.128C119.829 27.4027 119.819 26.5813 119.797 25.664C119.797 24.7467 119.776 23.808 119.733 22.848C119.712 21.8667 119.68 20.9493 119.637 20.096C119.616 19.2213 119.573 18.4853 119.509 17.888C119.403 17.12 119.552 16.512 119.957 16.064C120.363 15.5947 120.885 15.36 121.525 15.36C122.677 15.424 123.349 15.9787 123.541 17.024C124.523 15.7867 125.877 15.136 127.605 15.072C129.12 15.0933 130.357 15.5093 131.317 16.32C132.277 17.1093 132.971 18.1653 133.397 19.488C133.547 19.9787 133.664 20.5653 133.749 21.248C133.856 21.9093 133.931 22.5813 133.973 23.264C134.016 23.9467 134.037 24.5333 134.037 25.024C134.016 26.0267 133.973 26.9973 133.909 27.936C133.867 28.8533 133.845 29.536 133.845 29.984ZM149.388 32.32C148.172 31.8507 147.564 31.072 147.564 29.984C146.348 31.6907 144.62 32.3627 142.38 32C141.143 31.6587 140.151 31.1253 139.404 30.4C138.657 29.6747 138.103 28.8213 137.74 27.84C137.377 26.8587 137.153 25.8133 137.068 24.704C137.004 24.32 136.993 23.7653 137.036 23.04C137.079 22.3147 137.132 21.5573 137.196 20.768C137.281 19.9573 137.367 19.2107 137.452 18.528C137.537 17.824 137.601 17.3013 137.644 16.96C137.751 16.256 138.039 15.7547 138.508 15.456C138.977 15.1573 139.489 15.04 140.044 15.104C140.599 15.168 141.068 15.4027 141.452 15.808C141.836 16.2133 141.985 16.768 141.9 17.472L141.676 19.136C141.612 19.584 141.537 20.16 141.452 20.864C141.388 21.5467 141.335 22.2187 141.292 22.88C141.249 23.5413 141.26 24.0533 141.324 24.416C141.409 25.4613 141.612 26.2613 141.932 26.816C142.273 27.3493 142.796 27.7013 143.5 27.872C143.969 28 144.492 27.968 145.068 27.776C145.644 27.5627 146.22 26.9973 146.796 26.08C146.924 25.952 147.052 25.8453 147.18 25.76C147.201 22.624 147.191 19.8187 147.148 17.344C147.148 16.7467 147.297 16.2667 147.596 15.904C147.895 15.5413 148.257 15.296 148.684 15.168C149.132 15.04 149.58 15.04 150.028 15.168C150.476 15.2747 150.849 15.5093 151.148 15.872C151.468 16.2133 151.639 16.6827 151.66 17.28C151.703 20.4373 151.703 24.7147 151.66 30.112C151.66 30.7093 151.436 31.232 150.988 31.68C150.54 32.1067 150.007 32.32 149.388 32.32ZM163.23 31.104L160.638 27.456C159.827 28.6293 159.091 29.792 158.43 30.944C158.11 31.456 157.726 31.7867 157.278 31.936C156.83 32.0853 156.382 32.096 155.934 31.968C155.486 31.84 155.102 31.6053 154.782 31.264C154.462 30.9227 154.259 30.5173 154.174 30.048C154.11 29.5787 154.227 29.088 154.526 28.576C155.486 26.9547 156.542 25.2587 157.694 23.488L154.078 18.88C153.715 18.4107 153.534 17.9413 153.534 17.472C153.555 16.9813 153.694 16.544 153.95 16.16C154.227 15.776 154.568 15.488 154.974 15.296C155.4 15.104 155.848 15.0507 156.318 15.136C156.787 15.2213 157.214 15.4987 157.598 15.968L160.446 19.584L162.91 16C163.251 15.5307 163.646 15.2533 164.094 15.168C164.563 15.0613 165.011 15.104 165.438 15.296C165.864 15.4667 166.216 15.744 166.494 16.128C166.792 16.4907 166.952 16.9173 166.974 17.408C166.995 17.8773 166.824 18.3573 166.462 18.848L163.326 23.392L166.91 28.448C167.251 28.9387 167.4 29.4187 167.358 29.888C167.315 30.3573 167.144 30.784 166.846 31.168C166.547 31.5307 166.174 31.7973 165.726 31.968C165.299 32.1173 164.862 32.128 164.414 32C163.966 31.8933 163.571 31.5947 163.23 31.104Z" fill="white"/>
<path d="M47.2325 29.5011C47.442 28.9716 47.5645 28.3679 47.5645 27.7215C47.5645 25.7411 46.459 24.1306 45.1 24.1306C43.7295 24.1306 42.6245 25.7411 42.6245 27.7215C42.6245 28.3569 42.735 28.9606 42.945 29.4795C38.4245 29.9352 35.2415 31.7465 33.9485 32.5615C36.126 29.5533 38.403 26.0267 40.5795 21.9696C41.121 20.9628 41.63 19.9676 42.1045 18.9935C42.292 19.1099 42.48 19.2374 42.69 19.3648C43.6625 19.947 44.5695 20.2652 45.232 20.4348C44.7455 20.085 44.2155 19.6619 43.674 19.1425C43.2655 18.751 42.9005 18.3581 42.5905 17.9767C43.508 16.0495 44.304 14.1956 45 12.4375C46.16 15.3815 47.6085 18.591 49.4205 21.9696C50.592 24.1407 51.786 26.1642 52.979 28.0281C52.6365 27.8485 52.2605 27.6784 51.8625 27.5303C51.177 27.2763 50.5365 27.1172 49.983 27.0224C50.7345 27.3822 51.608 27.8595 52.525 28.4949C53.122 28.9189 53.652 29.3425 54.1055 29.7555C54.116 29.7656 54.116 29.7656 54.128 29.7771C54.758 30.7623 55.4105 31.6732 56.051 32.5625C54.7805 31.757 51.653 29.9774 47.2325 29.5011Z" fill="#1E88E5"/>
</g>
<defs>
<clipPath id="clip0_2_2">
<rect width="172" height="45" fill="white"/>
</clipPath>
</defs>
</svg>
